<svg xmlns="http://www.w3.org/2000/svg" version="1.1" xmlns:xlink="http://www.w3.org/1999/xlink" xmlns:svgjs="http://svgjs.dev/svgjs" width="1920" height="1080" preserveAspectRatio="none" viewBox="0 0 1920 1080"><g mask="url(&quot;#SvgjsMask1168&quot;)" fill="none"><rect width="1920" height="1080" x="0" y="0" fill="url(&quot;#SvgjsLinearGradient1169&quot;)"></rect><path d="M0 409.21L10 379.44L20 492.97L30 608.74L40 553.71L50 495.8L60 468.94L70 568.16L80 681.06L90 640.65L100 633.44L110 639.07L120 753.91L130 676.29L140 643.46L150 776.91L160 801.85L170 775.6L180 823.14L190 830.52L200 727.77L210 842.12L220 959.68L230 901.49L240 787.57L250 896.2L260 1003.83L270 1035.56L280 973.17L290 985.25L300 876.15L310 786.89L320 817.14L330 767.16L340 703.42L350 809.18L360 682.55L370 673.18L380 583.3L390 508.88L400 571.8L410 668.27L420 737.7L430 724.82L440 790.2L450 794.39L460 839.21L470 706.07L480 741.96L490 875.22L500 906.4L510 961.36L520 964.86L530 1079.37L540 963.44L550 1042.01L560 1026.78L570 938.76L580 1042.09L590 1008.56L600 936.04L610 1012.97L620 930.58L630 993.9L640 1005.6L650 874.7L660 911.49L670 802.05L680 738.15L690 847.78L700 872.57L710 921.85L720 1027.37L730 901.26L740 816.52L750 735.42L760 716.81L770 806.59L780 856.12L790 971.01L800 1070.57L810 938.63L820 917.48L830 825.47L840 692.09L850 680.51L860 662.63L870 654.75L880 666.56L890 743.44L900 647.47L910 694.89L920 698.9L930 817.68L940 722.09L950 740.44L960 647.17L970 651.31L980 521.5L990 451.93L1000 355.98L1010 486.44L1020 401.92L1030 316.74L1040 377.4L1050 486.97L1060 462.25L1070 386.96L1080 443.85L1090 414.38L1100 407.89L1110 317.26L1120 314.56L1130 392.57L1140 308.76L1150 203.01L1160 252.51L1170 379.14L1180 512.6L1190 627.46L1200 503.14L1210 591.51L1220 626.55L1230 570.86L1240 496.93L1250 373.77L1260 473.63L1270 431.09L1280 564.97L1290 492.79L1300 496.84L1310 369.09L1320 385.3L1330 471.2L1340 575.53L1350 617.14L1360 604.89L1370 545.28L1380 441.51L1390 347.61L1400 403.11L1410 427.19L1420 351.94L1430 336.45L1440 419.72L1450 429.35L1460 341.01L1470 420.96L1480 502.12L1490 378.58L1500 431.61L1510 309.11L1520 269.18L1530 382.3L1540 488.58L1550 508.07L1560 615.1L1570 587.01L1580 671.73L1590 603.57L1600 644.55L1610 541.21L1620 646.35L1630 588.92L1640 554.35L1650 554.47L1660 436.81L1670 523.18L1680 415.51L1690 323.68L1700 244.48L1710 350.27L1720 277.64L1730 188.74L1740 311.3L1750 240.04L1760 148L1770 45.7L1780 49.05L1790 122.12L1800 256.57L1810 185.54L1820 244.31L1830 352.12L1840 229.64L1850 130.12L1860 180.79L1870 99.18L1880 180.32L1890 209.77L1900 275.35L1910 271.6L1920 351.65" stroke="rgba(15, 157, 88, 1)" stroke-width="2"></path><path d="M0 409.21L10 379.44L20 492.97L30 608.74L40 553.71L50 495.8L60 468.94L70 568.16L80 681.06L90 640.65L100 633.44L110 639.07L120 753.91L130 676.29L140 643.46L150 776.91L160 801.85L170 775.6L180 823.14L190 830.52L200 727.77L210 842.12L220 959.68L230 901.49L240 787.57L250 896.2L260 1003.83L270 1035.56L280 973.17L290 985.25L300 876.15L310 786.89L320 817.14L330 767.16L340 703.42L350 809.18L360 682.55L370 673.18L380 583.3L390 508.88L400 571.8L410 668.27L420 737.7L430 724.82L440 790.2L450 794.39L460 839.21L470 706.07L480 741.96L490 875.22L500 906.4L510 961.36L520 964.86L530 1079.37L540 963.44L550 1042.01L560 1026.78L570 938.76L580 1042.09L590 1008.56L600 936.04L610 1012.97L620 930.58L630 993.9L640 1005.6L650 874.7L660 911.49L670 802.05L680 738.15L690 847.78L700 872.57L710 921.85L720 1027.37L730 901.26L740 816.52L750 735.42L760 716.81L770 806.59L780 856.12L790 971.01L800 1070.57L810 938.63L820 917.48L830 825.47L840 692.09L850 680.51L860 662.63L870 654.75L880 666.56L890 743.44L900 647.47L910 694.89L920 698.9L930 817.68L940 722.09L950 740.44L960 647.17L970 651.31L980 521.5L990 451.93L1000 355.98L1010 486.44L1020 401.92L1030 316.74L1040 377.4L1050 486.97L1060 462.25L1070 386.96L1080 443.85L1090 414.38L1100 407.89L1110 317.26L1120 314.56L1130 392.57L1140 308.76L1150 203.01L1160 252.51L1170 379.14L1180 512.6L1190 627.46L1200 503.14L1210 591.51L1220 626.55L1230 570.86L1240 496.93L1250 373.77L1260 473.63L1270 431.09L1280 564.97L1290 492.79L1300 496.84L1310 369.09L1320 385.3L1330 471.2L1340 575.53L1350 617.14L1360 604.89L1370 545.28L1380 441.51L1390 347.61L1400 403.11L1410 427.19L1420 351.94L1430 336.45L1440 419.72L1450 429.35L1460 341.01L1470 420.96L1480 502.12L1490 378.58L1500 431.61L1510 309.11L1520 269.18L1530 382.3L1540 488.58L1550 508.07L1560 615.1L1570 587.01L1580 671.73L1590 603.57L1600 644.55L1610 541.21L1620 646.35L1630 588.92L1640 554.35L1650 554.47L1660 436.81L1670 523.18L1680 415.51L1690 323.68L1700 244.48L1710 350.27L1720 277.64L1730 188.74L1740 311.3L1750 240.04L1760 148L1770 45.7L1780 49.05L1790 122.12L1800 256.57L1810 185.54L1820 244.31L1830 352.12L1840 229.64L1850 130.12L1860 180.79L1870 99.18L1880 180.32L1890 209.77L1900 275.35L1910 271.6L1920 351.65L1920 1080L0 1080z" fill="url(&quot;#SvgjsLinearGradient1170&quot;)"></path></g><defs><mask id="SvgjsMask1168"><rect width="1920" height="1080" fill="#ffffff"></rect></mask><linearGradient x1="10.94%" y1="-19.44%" x2="89.06%" y2="119.44%" gradientUnits="userSpaceOnUse" id="SvgjsLinearGradient1169"><stop stop-color="rgba(255, 255, 255, 0)" offset="0.01"></stop><stop stop-color="rgba(255, 255, 255, 0)" offset="0.51"></stop><stop stop-color="rgba(255, 255, 255, 0)" offset="1"></stop></linearGradient><linearGradient x1="50%" y1="0%" x2="50%" y2="100%" id="SvgjsLinearGradient1170"><stop stop-opacity="0.65" stop-color="rgba(15, 157, 88, 1)" offset="0"></stop><stop stop-opacity="0" stop-color="#55efa4" offset="0.8"></stop></linearGradient></defs></svg>